<?xml version="1.0" encoding="UTF-8"?>
<svg xmlns="http://www.w3.org/2000/svg" width="900" height="220" viewBox="0 0 900 220" role="img" aria-labelledby="title desc">
  <title id="title">NEARU Market — logotipo horizontal</title>
  <desc id="desc">NEARU Market, mercados autónomos para edificios residenciales.</desc>
  
  <g transform="translate(20 20) scale(0.9)">
  <path d="M38 156 L38 62 C38 41 49 30 65 30 C76 30 84 35 92 44 L127 84 C135 93 140 97 148 97 C158 97 163 89 163 78 L163 30"
        fill="none" stroke="#171B1A" stroke-width="20" stroke-linecap="round" stroke-linejoin="round"/>
  <circle cx="169" cy="154" r="11" fill="#171B1A"/>
</g>
<path d="M140 0V1440H352L1061 370V1440H1273V0H1061L352 1071V0Z" fill="#171B1A" transform="translate(235.000 128.000) scale(0.056000 -0.056000)"/>
<path d="M140 0V1440H1060V1243H349V839H940V642H349V197H1060V0Z" fill="#171B1A" transform="translate(318.160 128.000) scale(0.056000 -0.056000)"/>
<path d="M40 0 508 1440H809L1277 0H1060L953 325H362L257 0ZM889 521 656 1231 426 521Z" fill="#171B1A" transform="translate(387.152 128.000) scale(0.056000 -0.056000)"/>
<path d="M140 0V1440H722Q743 1440 774.0 1438.5Q805 1437 833 1432Q953 1413 1033.5 1350.0Q1114 1287 1154.0 1191.0Q1194 1095 1194 979Q1194 807 1106 683Q1047 599 949 558L1221 0H982L731 517H349V0ZM349 715H714Q734 715 758.5 717.0Q783 719 805 724Q869 739 908.0 779.5Q947 820 964.0 873.0Q981 926 981.0 979.0Q981 1032 964.0 1084.5Q947 1137 908.0 1177.5Q869 1218 805 1233Q783 1239 758.5 1241.0Q734 1243 714 1243H349Z" fill="#171B1A" transform="translate(464.936 128.000) scale(0.056000 -0.056000)"/>
<path d="M714 -30Q545 -30 415.5 39.5Q286 109 213.0 234.5Q140 360 140 530V1439L352 1440V541Q352 449 383.0 379.0Q414 309 466.0 262.0Q518 215 582.5 191.0Q647 167 714 167Q782 167 846.5 191.5Q911 216 963.0 263.0Q1015 310 1045.5 380.0Q1076 450 1076 541V1440H1288V530Q1288 361 1215.0 235.0Q1142 109 1012.5 39.5Q883 -30 714 -30Z" fill="#171B1A" transform="translate(541.824 128.000) scale(0.056000 -0.056000)"/>
<path d="M140 0V1440H302L846 293L1387 1440H1551V1H1382V1049L893 0H798L309 1049V0Z" fill="#171B1A" transform="translate(358.165 188.000) scale(0.015500 -0.015500)"/>
<path d="M40 0 522 1440H770L1252 0H1067L953 337H338L225 0ZM897 504 644 1253 394 504Z" fill="#171B1A" transform="translate(388.173 188.000) scale(0.015500 -0.015500)"/>
<path d="M140 0V1440H709Q730 1440 759.0 1438.5Q788 1437 815 1432Q932 1414 1011.5 1352.0Q1091 1290 1131.0 1195.5Q1171 1101 1171 986Q1171 819 1084 697Q1023 611 923 570L1201 0H997L739 532H318V0ZM318 701H703Q722 701 746.5 703.0Q771 705 793 710Q862 726 905.5 768.5Q949 811 969.0 868.5Q989 926 989.0 986.0Q989 1046 969.0 1103.5Q949 1161 905.5 1204.0Q862 1247 793 1262Q771 1268 746.5 1269.5Q722 1271 703 1271H318Z" fill="#171B1A" transform="translate(411.997 188.000) scale(0.015500 -0.015500)"/>
<path d="M140 0V1440H318V764L948 1440H1172L518 741L1223 0H993L318 704V0Z" fill="#171B1A" transform="translate(435.650 188.000) scale(0.015500 -0.015500)"/>
<path d="M140 0V1440H1050V1271H318V820H930V651H318V169H1050V0Z" fill="#171B1A" transform="translate(458.404 188.000) scale(0.015500 -0.015500)"/>
<path d="M511 0V1271H20V1440H1180V1271H689V0Z" fill="#171B1A" transform="translate(480.026 188.000) scale(0.015500 -0.015500)"/>
</svg>
